<?xml version="1.0" encoding="UTF-8"?>
<svg width="152px" height="152px" viewBox="0 0 152 152" version="1.1" xmlns="http://www.w3.org/2000/svg" xmlns:xlink="http://www.w3.org/1999/xlink">
    <!-- Generator: sketchtool 53 (72520) - https://sketchapp.com -->
    <title>8BA4205C-DCD9-4407-A3CE-C0854ABF744C</title>
    <desc>Created with sketchtool.</desc>
    <defs>
        <circle id="path-1" cx="60" cy="60" r="60"></circle>
        <filter x="-23.3%" y="-16.7%" width="146.7%" height="146.7%" filterUnits="objectBoundingBox" id="filter-3">
            <feOffset dx="0" dy="8" in="SourceAlpha" result="shadowOffsetOuter1"></feOffset>
            <feGaussianBlur stdDeviation="8" in="shadowOffsetOuter1" result="shadowBlurOuter1"></feGaussianBlur>
            <feColorMatrix values="0 0 0 0 0   0 0 0 0 0   0 0 0 0 0  0 0 0 0.2 0" type="matrix" in="shadowBlurOuter1"></feColorMatrix>
        </filter>
        <circle id="path-4" cx="60" cy="60" r="43"></circle>
    </defs>
    <g id="Page-1" stroke="none" stroke-width="1" fill="none" fill-rule="evenodd">
        <g id="IE_home_xl_long_form" transform="translate(-1364.000000, -3414.000000)">
            <g id="Group-4" transform="translate(0.000000, 3214.000000)">
                <g id="ic_Ass_3" transform="translate(1380.000000, 208.000000)">
                    <mask id="mask-2" fill="white">
                        <use xlink:href="#path-1"></use>
                    </mask>
                    <g id="Oval" fill-rule="nonzero">
                        <use fill="black" fill-opacity="1" filter="url(#filter-3)" xlink:href="#path-1"></use>
                        <use fill="#EBF4FD" xlink:href="#path-1"></use>
                    </g>
                    <mask id="mask-5" fill="white">
                        <use xlink:href="#path-4"></use>
                    </mask>
                    <use id="Oval-Copy-10" stroke="#4F637C" stroke-width="2" fill="#3696F5" fill-rule="nonzero" xlink:href="#path-4"></use>
                    <g id="Locked" mask="url(#mask-5)" fill="#F8F8F8">
                        <g transform="translate(43.000000, 35.000000)" id="Shape">
                            <path d="M31.72,15.4 L28.72,15.4 L28.72,11.4 C28.72,5.32486775 23.7951322,0.4 17.72,0.4 C11.6448678,0.4 6.72,5.32486775 6.72,11.4 L6.72,15.4 L3.72,15.4 C2.06314575,15.4 0.72,16.7431458 0.72,18.4 L0.72,38.4 C0.72,40.0568542 2.06314575,41.4 3.72,41.4 L31.72,41.4 C33.3768542,41.4 34.72,40.0568542 34.72,38.4 L34.72,18.4 C34.72,16.7431458 33.3768542,15.4 31.72,15.4 L31.72,15.4 Z M9.72,11.4 C9.72,6.981722 13.301722,3.4 17.72,3.4 C22.138278,3.4 25.72,6.981722 25.72,11.4 L25.72,15.4 L9.72,15.4 L9.72,11.4 Z M31.72,38.4 L3.72,38.4 L3.72,18.4 L31.72,18.4 L31.72,38.4 Z"></path>
                            <path d="M18.22,33.4 C20.7052814,33.4 22.72,31.3852814 22.72,28.9 C22.72,26.4147186 20.7052814,24.4 18.22,24.4 C15.7347186,24.4 13.72,26.4147186 13.72,28.9 C13.7254995,31.3829999 15.7370001,33.3945005 18.22,33.4 Z M18.22,27.4 C19.0484271,27.4 19.72,28.0715729 19.72,28.9 C19.72,29.7284271 19.0484271,30.4 18.22,30.4 C17.3915729,30.4 16.72,29.7284271 16.72,28.9 C16.72,28.0715729 17.3915729,27.4 18.22,27.4 Z"></path>
                        </g>
                    </g>
                </g>
            </g>
        </g>
    </g>
</svg>