<?xml version="1.0" encoding="UTF-8"?>
<svg width="152px" height="152px" viewBox="0 0 152 152" version="1.1" xmlns="http://www.w3.org/2000/svg" xmlns:xlink="http://www.w3.org/1999/xlink">
    <!-- Generator: sketchtool 53 (72520) - https://sketchapp.com -->
    <title>E6D1C516-B507-4FB1-B51B-428F94573F84</title>
    <desc>Created with sketchtool.</desc>
    <defs>
        <circle id="path-1" cx="60" cy="60" r="60"></circle>
        <filter x="-23.3%" y="-16.7%" width="146.7%" height="146.7%" filterUnits="objectBoundingBox" id="filter-3">
            <feOffset dx="0" dy="8" in="SourceAlpha" result="shadowOffsetOuter1"></feOffset>
            <feGaussianBlur stdDeviation="8" in="shadowOffsetOuter1" result="shadowBlurOuter1"></feGaussianBlur>
            <feColorMatrix values="0 0 0 0 0   0 0 0 0 0   0 0 0 0 0  0 0 0 0.2 0" type="matrix" in="shadowBlurOuter1"></feColorMatrix>
        </filter>
    </defs>
    <g id="Page-1" stroke="none" stroke-width="1" fill="none" fill-rule="evenodd">
        <g id="IE_home_xl_long_form" transform="translate(-404.000000, -3414.000000)">
            <g id="Group-4" transform="translate(0.000000, 3214.000000)">
                <g id="ic_Ass_1" transform="translate(420.000000, 208.000000)">
                    <mask id="mask-2" fill="white">
                        <use xlink:href="#path-1"></use>
                    </mask>
                    <g id="Oval" fill-rule="nonzero">
                        <use fill="black" fill-opacity="1" filter="url(#filter-3)" xlink:href="#path-1"></use>
                        <use fill="#EBF4FD" xlink:href="#path-1"></use>
                    </g>
                    <g id="Group-6" mask="url(#mask-2)">
                        <g transform="translate(15.000000, 15.000000)">
                            <path d="M34.6875,81.0641999 C31.9109388,80.2717422 29.2659546,79.1672973 26.7928797,77.7911976 L23.3006607,81.2834167 C21.7385635,82.8455139 19.2059036,82.8455139 17.6438064,81.2834167 L8.71658329,72.3561936 C7.15448612,70.7940964 7.15448612,68.2614365 8.71658329,66.6993393 L12.2088024,63.2071203 C10.8327027,60.7340454 9.72825781,58.0890612 8.93580013,55.3125 L4,55.3125 C1.790861,55.3125 1.13686838e-13,53.521639 1.13686838e-13,51.3125 L1.13686838e-13,38.6875 C1.13686838e-13,36.478361 1.790861,34.6875 4,34.6875 L8.93580013,34.6875 C9.72825781,31.9109388 10.8327027,29.2659546 12.2088024,26.7928797 L8.71658329,23.3006607 C7.15448612,21.7385635 7.15448612,19.2059036 8.71658329,17.6438064 L17.6438064,8.71658329 C19.2059036,7.15448612 21.7385635,7.15448612 23.3006607,8.71658329 L26.7928797,12.2088024 C29.2659546,10.8327027 31.9109388,9.72825781 34.6875,8.93580013 L34.6875,4 C34.6875,1.790861 36.478361,4.05812251e-16 38.6875,0 L51.3125,0 C53.521639,-4.05812251e-16 55.3125,1.790861 55.3125,4 L55.3125,8.93580013 C58.0890612,9.72825781 60.7340454,10.8327027 63.2071203,12.2088024 L66.6993393,8.71658329 C68.2614365,7.15448612 70.7940964,7.15448612 72.3561936,8.71658329 L81.2834167,17.6438064 C82.8455139,19.2059036 82.8455139,21.7385635 81.2834167,23.3006607 L77.7911976,26.7928797 C79.1672973,29.2659546 80.2717422,31.9109388 81.0641999,34.6875 L86,34.6875 C88.209139,34.6875 90,36.478361 90,38.6875 L90,51.3125 C90,53.521639 88.209139,55.3125 86,55.3125 L81.0641999,55.3125 C80.2717422,58.0890612 79.1672973,60.7340454 77.7911976,63.2071203 L81.2834167,66.6993393 C82.8455139,68.2614365 82.8455139,70.7940964 81.2834167,72.3561936 L72.3561936,81.2834167 C70.7940964,82.8455139 68.2614365,82.8455139 66.6993393,81.2834167 L63.2071203,77.7911976 C60.7340454,79.1672973 58.0890612,80.2717422 55.3125,81.0641999 L55.3125,86 C55.3125,88.209139 53.521639,90 51.3125,90 L38.6875,90 C36.478361,90 34.6875,88.209139 34.6875,86 L34.6875,81.0641999 Z" id="Combined-Shape" stroke="#4F637C" stroke-width="2" fill="#3696F5" fill-rule="nonzero"></path>
                            <circle id="Oval" stroke="none" fill="#3696F5" fill-rule="nonzero" cx="45" cy="46" r="12"></circle>
                            <path d="M39,57 L50,57 L50,63 C50,65.209139 48.209139,67 46,67 L43,67 C40.790861,67 39,65.209139 39,63 L39,57 Z" id="Rectangle" stroke="none" fill="#3696F5" fill-rule="nonzero"></path>
                            <g id="Idea" stroke="none" stroke-width="1" fill="none" fill-rule="evenodd" transform="translate(22.000000, 22.000000)">
                                <path d="M22.22,5.9 C23.0484271,5.9 23.72,5.22842712 23.72,4.4 L23.72,2.4 C23.72,1.57157288 23.0484271,0.9 22.22,0.9 C21.3915729,0.9 20.72,1.57157288 20.72,2.4 L20.72,4.4 C20.72,5.22842712 21.3915729,5.9 22.22,5.9 Z" id="Shape" fill="#F8F8F8"></path>
                                <path d="M43.72,19.4 L41.72,19.4 C40.8915729,19.4 40.22,20.0715729 40.22,20.9 C40.22,21.7284271 40.8915729,22.4 41.72,22.4 L43.72,22.4 C44.5484271,22.4 45.22,21.7284271 45.22,20.9 C45.22,20.0715729 44.5484271,19.4 43.72,19.4 Z" id="Shape" fill="#F8F8F8"></path>
                                <path d="M5.22,20.9 C5.22,20.0715729 4.54842712,19.4 3.72,19.4 L1.72,19.4 C0.891572875,19.4 0.22,20.0715729 0.22,20.9 C0.22,21.7284271 0.891572875,22.4 1.72,22.4 L3.72,22.4 C4.54842712,22.4 5.22,21.7284271 5.22,20.9 Z" id="Shape" fill="#F8F8F8"></path>
                                <path d="M36.15,10.96 C36.5476907,10.9596499 36.9289653,10.801385 37.21,10.52 L38.63,9.11 C39.1807177,8.51898049 39.1644678,7.59798056 38.5932436,7.0267564 C38.0220194,6.45553225 37.1010195,6.43928228 36.51,6.99 L35.09,8.4 C34.6615594,8.82897364 34.5334836,9.47368416 34.765426,10.033847 C34.9973685,10.5940099 35.5437167,10.9594667 36.15,10.96 Z" id="Shape" fill="#F8F8F8"></path>
                                <path d="M9.35,8.4 L7.93,6.99 C7.33898049,6.43928228 6.41798056,6.45553225 5.8467564,7.0267564 C5.27553225,7.59798056 5.25928228,8.51898049 5.81,9.11 L7.23,10.52 C7.82101951,11.0707177 8.74201944,11.0544678 9.3132436,10.4832436 C9.88446775,9.91201944 9.90071772,8.99101951 9.35,8.4 L9.35,8.4 Z" id="Shape" fill="#F8F8F8"></path>
                                <path d="M39.22,32.4 C38.6289805,31.8492823 37.7079806,31.8655322 37.1367564,32.4367564 C36.5655322,33.0079806 36.5492823,33.9289805 37.1,34.52 L38.52,35.93 C39.1110195,36.4807177 40.0320194,36.4644678 40.6032436,35.8932436 C41.1744678,35.3220194 41.1907177,34.4010195 40.64,33.81 L39.22,32.4 Z" id="Shape" fill="#F8F8F8"></path>
                                <path d="M5.22,32.4 L3.8,33.81 C3.24928228,34.4010195 3.26553225,35.3220194 3.8367564,35.8932436 C4.40798056,36.4644678 5.32898049,36.4807177 5.92,35.93 L7.34,34.52 C7.89071772,33.9289805 7.87446775,33.0079806 7.3032436,32.4367564 C6.73201944,31.8655322 5.81101951,31.8492823 5.22,32.4 Z" id="Shape" fill="#F8F8F8"></path>
                                <path d="M36.72,23.4 C36.7296108,16.5315143 31.7550898,10.6704305 24.9763913,9.56343679 C18.1976928,8.45644305 11.6170444,12.4305126 9.44111471,18.9452282 C7.26518502,25.4599437 10.1366795,32.5910504 16.22,35.78 C15.9080985,36.2628608 15.7414897,36.8251653 15.74,37.4 L15.74,40.4 C15.74,43.7137085 18.4262915,46.4 21.74,46.4 L23.74,46.4 C27.0537085,46.4 29.74,43.7137085 29.74,40.4 L29.74,37.4 C29.7385103,36.8251653 29.5719015,36.2628608 29.26,35.78 C33.8493413,33.3552975 36.7205391,28.5904947 36.72,23.4 Z M26.72,37.4 L26.72,38.4 L21.72,38.4 C20.8915729,38.4 20.22,39.0715729 20.22,39.9 C20.22,40.7284271 20.8915729,41.4 21.72,41.4 L26.54,41.4 C26.1172517,42.5957287 24.9882549,43.3964356 23.72,43.4 L21.72,43.4 C20.0631458,43.4 18.72,42.0568542 18.72,40.4 L18.72,37.4 L26.72,37.4 Z M22.72,34.4 C16.6448678,34.4 11.72,29.4751322 11.72,23.4 C11.72,17.3248678 16.6448678,12.4 22.72,12.4 C28.7951322,12.4 33.72,17.3248678 33.72,23.4 C33.7200012,26.3191148 32.5597034,29.1185244 30.4946399,31.1817123 C28.4295764,33.2449001 25.6291136,34.4026537 22.71,34.4 L22.72,34.4 Z" id="Shape" fill="#F8F8F8"></path>
                                <path d="M22.72,14.9 C21.8915729,14.9 21.22,15.5715729 21.22,16.4 C21.22,17.2284271 21.8915729,17.9 22.72,17.9 C25.7552835,17.9055037 28.2144963,20.3647165 28.22,23.4 C28.22,24.2284271 28.8915729,24.9 29.72,24.9 C30.5484271,24.9 31.22,24.2284271 31.22,23.4 C31.2144896,18.707864 27.412136,14.9055104 22.72,14.9 L22.72,14.9 Z" id="Shape" fill="#F8F8F8"></path>
                            </g>
                        </g>
                    </g>
                </g>
            </g>
        </g>
    </g>
</svg>