<?xml version="1.0" encoding="UTF-8"?>
<svg width="152px" height="152px" viewBox="0 0 152 152" version="1.1" xmlns="http://www.w3.org/2000/svg" xmlns:xlink="http://www.w3.org/1999/xlink">
    <!-- Generator: sketchtool 53 (72520) - https://sketchapp.com -->
    <title>D18EC21F-EB59-454B-896E-91972A0B1462</title>
    <desc>Created with sketchtool.</desc>
    <defs>
        <circle id="path-1" cx="60" cy="60" r="60"></circle>
        <filter x="-23.3%" y="-16.7%" width="146.7%" height="146.7%" filterUnits="objectBoundingBox" id="filter-3">
            <feOffset dx="0" dy="8" in="SourceAlpha" result="shadowOffsetOuter1"></feOffset>
            <feGaussianBlur stdDeviation="8" in="shadowOffsetOuter1" result="shadowBlurOuter1"></feGaussianBlur>
            <feColorMatrix values="0 0 0 0 0   0 0 0 0 0   0 0 0 0 0  0 0 0 0.2 0" type="matrix" in="shadowBlurOuter1"></feColorMatrix>
        </filter>
    </defs>
    <g id="Page-1" stroke="none" stroke-width="1" fill="none" fill-rule="evenodd">
        <g id="IE_home_xl_long_form" transform="translate(-884.000000, -3414.000000)">
            <g id="Group-4" transform="translate(0.000000, 3214.000000)">
                <g id="ic_Ass_2" transform="translate(900.000000, 208.000000)">
                    <mask id="mask-2" fill="white">
                        <use xlink:href="#path-1"></use>
                    </mask>
                    <g id="Oval" fill-rule="nonzero">
                        <use fill="black" fill-opacity="1" filter="url(#filter-3)" xlink:href="#path-1"></use>
                        <use fill="#EBF4FD" xlink:href="#path-1"></use>
                    </g>
                    <g id="Group-6" mask="url(#mask-2)">
                        <g transform="translate(25.000000, 25.000000)">
                            <path d="M3.40658694,4.81423437 L31.9871592,0.459099545 C33.9841935,0.15478956 36.0158065,0.15478956 38.0128408,0.459099545 L66.5934177,4.81423988 C68.5509667,5.11253305 69.9956547,6.79818773 69.9908337,8.77832747 C69.9599648,21.457021 69.9630203,33.3457267 70,44.4444444 C70,58.8453759 58.3333333,70.6972277 35,80 C11.6666667,70.8699188 0,59.0180669 0,44.4444444 C0.0369797292,33.3457252 0.0400351603,21.4570178 0.00916629332,8.77832234 L0.00917066046,8.77832233 C0.00434960642,6.79818241 1.44903783,5.11252757 3.40658694,4.81423437 Z" id="Rectangle" stroke="#4F637C" stroke-width="2" fill="#3696F5" fill-rule="nonzero"></path>
                            <g id="Chart-14" stroke="none" stroke-width="1" fill="none" fill-rule="evenodd" transform="translate(14.000000, 12.000000)">
                                <path d="M37.22,17.4 L37.72,17.4 C40.4814237,17.5380712 42.8319288,15.4114237 42.97,12.65 C43.1080712,9.88857625 40.9814237,7.53807119 38.22,7.4 L37.72,7.4 L37.72,7.4 C35.8261397,7.4 34.0948241,8.47001188 33.247864,10.163932 C32.400904,11.8578522 32.5836838,13.8849118 33.72,15.4 L27.21,24.62 C26.8850734,24.5126395 26.5499835,24.4389197 26.21,24.4 L25.71,24.4 L25.71,24.4 C24.6281489,24.4 23.5754809,24.7508894 22.71,25.4 L16.56,21.01 C16.8507507,19.6238573 16.539998,18.1794368 15.7049267,17.0355035 C14.8698554,15.8915702 13.5888186,15.1554571 12.18,15.01 L11.68,15.01 L11.68,15.01 C9.92368418,15.0128064 8.29762161,15.9369039 7.39641422,17.4443781 C6.49520684,18.9518522 6.45101563,20.8216337 7.28,22.37 L3.71,26.66 L3.71,2.4 C3.71,1.57157288 3.03842712,0.9 2.21,0.9 C1.38157288,0.9 0.71,1.57157288 0.71,2.4 L0.71,40.9 C0.709991121,41.2995634 0.869398357,41.6826176 1.15286945,41.9642114 C1.43634054,42.2458052 1.82044546,42.4026638 2.22,42.4 L40.72,42.4 C41.5484271,42.4 42.22,41.7284271 42.22,40.9 C42.22,40.0715729 41.5484271,39.4 40.72,39.4 L3.72,39.4 L3.72,31.34 L9.45,24.46 C9.99647784,24.7392616 10.5896976,24.9155326 11.2,24.98 L11.7,24.98 C12.9652696,24.9808795 14.1838227,24.5020346 15.11,23.64 L20.97,27.83 C20.8592421,28.1545636 20.7821696,28.4896611 20.74,28.83 C20.5803283,30.1655608 20.9654937,31.5091266 21.8085041,32.5572445 C22.6515145,33.6053624 23.8812619,34.2696234 25.22,34.4 L25.72,34.4 C27.6138603,34.4 29.3451759,33.3299881 30.192136,31.636068 C31.039096,29.9421478 30.8563162,27.9150882 29.72,26.4 L36.23,17.18 C36.5516908,17.2866972 36.8833966,17.3604096 37.22,17.4 L37.22,17.4 Z M11.7,22.03 L11.5,22.03 C10.7854688,21.9942734 10.1442747,21.5800629 9.81794919,20.9433975 C9.49162371,20.306732 9.52974349,19.5443363 9.91794919,18.9433975 C10.3061549,18.3424586 10.9854688,17.9942734 11.7,18.03 L11.9,18.03 C13.0045695,18.0852285 13.8552285,19.0254305 13.8,20.13 C13.7447715,21.2345695 12.8045695,22.0852285 11.7,22.03 L11.7,22.03 Z M37.7,10.42 L37.9,10.42 C39.0045695,10.4752285 39.8552285,11.4154305 39.8,12.52 C39.7447715,13.6245695 38.8045695,14.4752285 37.7,14.42 L37.5,14.42 C36.3954305,14.3647715 35.5447715,13.4245695 35.6,12.32 C35.6552285,11.2154305 36.5954305,10.3647715 37.7,10.42 L37.7,10.42 Z M25.7,31.42 L25.5,31.42 C24.3954307,31.3647712 23.5447721,30.4245693 23.6000005,29.32 C23.655229,28.2154307 24.5954307,27.3647718 25.7,27.42 L25.9,27.42 C27.0045693,27.4752288 27.8552279,28.4154307 27.7999995,29.52 C27.744771,30.6245693 26.8045693,31.4752282 25.7,31.42 Z" id="Shape" fill="#F8F8F8"></path>
                            </g>
                        </g>
                    </g>
                </g>
            </g>
        </g>
    </g>
</svg>